HIERARCHY
ROOT Hips
{
    OFFSET   0.000000   0.000000   0.000000
    CHANNELS 6 Xposition Yposition Zposition Zrotation Xrotation Yrotation
    JOINT Chest
    {
        OFFSET   0.000000   8.007230   0.000000
        CHANNELS 3 Zrotation Xrotation Yrotation
        JOINT Chest2
        {
            OFFSET   0.000000  22.077100   0.000000
            CHANNELS 3 Zrotation Xrotation Yrotation
            JOINT Neck
            {
                OFFSET   0.000000  23.255100   0.000000
                CHANNELS 3 Zrotation Xrotation Yrotation
                JOINT Head
                {
                    OFFSET   0.000000  14.370100   1.956600
                    CHANNELS 3 Zrotation Xrotation Yrotation
                    End Site
                    {
                        OFFSET   0.000000  19.566000   0.000000
                    }
                }
            }
            JOINT LeftCollar
            {
                OFFSET   3.911900  19.017000  -0.467063
                CHANNELS 3 Zrotation Xrotation Yrotation
                JOINT LeftShoulder
                {
                    OFFSET  10.383700   0.000000   0.000000
                    CHANNELS 3 Zrotation Xrotation Yrotation
                    JOINT LeftElbow
                    {
                        OFFSET  26.662100   0.001193   0.000980
                        CHANNELS 3 Zrotation Xrotation Yrotation
                        JOINT LeftWrist
                        {
                            OFFSET  28.869000  -0.000059  -0.000082
                            CHANNELS 3 Zrotation Xrotation Yrotation
                            JOINT LeftFinger0
                            {
                                OFFSET   2.044650  -2.323450   3.252850
                                CHANNELS 3 Zrotation Xrotation Yrotation
                                JOINT LeftFinger01
                                {
                                    OFFSET   3.088130   0.000000   0.000000
                                    CHANNELS 3 Zrotation Xrotation Yrotation
                                    JOINT LeftFinger02
                                    {
                                        OFFSET   2.639460   0.000000   0.000000
                                        CHANNELS 3 Zrotation Xrotation Yrotation
                                        End Site
                                        {
                                            OFFSET   2.582190   0.000000   0.000000
                                        }
                                    }
                                }
                            }
                            JOINT LeftFinger1
                            {
                                OFFSET   8.364480   0.000000   3.252850
                                CHANNELS 3 Zrotation Xrotation Yrotation
                                JOINT LeftFinger11
                                {
                                    OFFSET   4.646930   0.000000   0.000000
                                    CHANNELS 3 Zrotation Xrotation Yrotation
                                    JOINT LeftFinger12
                                    {
                                        OFFSET   2.323470   0.000000   0.000000
                                        CHANNELS 3 Zrotation Xrotation Yrotation
                                        End Site
                                        {
                                            OFFSET   2.273050   0.000000   0.000000
                                        }
                                    }
                                }
                            }
                            JOINT LeftFinger2
                            {
                                OFFSET   8.364490   0.000016   1.078090
                                CHANNELS 3 Zrotation Xrotation Yrotation
                                JOINT LeftFinger21
                                {
                                    OFFSET   5.111610   0.000000   0.000000
                                    CHANNELS 3 Zrotation Xrotation Yrotation
                                    JOINT LeftFinger22
                                    {
                                        OFFSET   2.788150   0.000016   0.000000
                                        CHANNELS 3 Zrotation Xrotation Yrotation
                                        End Site
                                        {
                                            OFFSET   2.727660   0.000000   0.000000
                                        }
                                    }
                                }
                            }
                            JOINT LeftFinger3
                            {
                                OFFSET   7.899780   0.000015  -1.078090
                                CHANNELS 3 Zrotation Xrotation Yrotation
                                JOINT LeftFinger31
                                {
                                    OFFSET   4.646930   0.000000   0.000000
                                    CHANNELS 3 Zrotation Xrotation Yrotation
                                    JOINT LeftFinger32
                                    {
                                        OFFSET   2.323470   0.000000   0.000000
                                        CHANNELS 3 Zrotation Xrotation Yrotation
                                        End Site
                                        {
                                            OFFSET   2.273050   0.000000   0.000000
                                        }
                                    }
                                }
                            }
                            JOINT LeftFinger4
                            {
                                OFFSET   7.435090   0.000000  -3.252850
                                CHANNELS 3 Zrotation Xrotation Yrotation
                                JOINT LeftFinger41
                                {
                                    OFFSET   3.717550   0.000000   0.000000
                                    CHANNELS 3 Zrotation Xrotation Yrotation
                                    JOINT LeftFinger42
                                    {
                                        OFFSET   1.858770   0.000000   0.000000
                                        CHANNELS 3 Zrotation Xrotation Yrotation
                                        End Site
                                        {
                                            OFFSET   1.818440   0.000000   0.000000
                                        }
                                    }
                                }
                            }
                        }
                    }
                }
            }
            JOINT RightCollar
            {
                OFFSET  -3.911910  19.017000  -0.467062
                CHANNELS 3 Zrotation Xrotation Yrotation
                JOINT RightShoulder
                {
                    OFFSET -10.383700   0.000014   0.000000
                    CHANNELS 3 Zrotation Xrotation Yrotation
                    JOINT RightElbow
                    {
                        OFFSET -26.662100   0.001225   0.001091
                        CHANNELS 3 Zrotation Xrotation Yrotation
                        JOINT RightWrist
                        {
                            OFFSET -28.869000  -0.000020  -0.000085
                            CHANNELS 3 Zrotation Xrotation Yrotation
                            JOINT RightFinger0
                            {
                                OFFSET  -2.044650  -2.323490   3.252850
                                CHANNELS 3 Zrotation Xrotation Yrotation
                                JOINT RightFinger01
                                {
                                    OFFSET  -3.088130   0.000000   0.000000
                                    CHANNELS 3 Zrotation Xrotation Yrotation
                                    JOINT RightFinger02
                                    {
                                        OFFSET  -2.639460   0.000000   0.000000
                                        CHANNELS 3 Zrotation Xrotation Yrotation
                                        End Site
                                        {
                                            OFFSET  -2.582190   0.000000   0.000000
                                        }
                                    }
                                }
                            }
                            JOINT RightFinger1
                            {
                                OFFSET  -8.364480   0.000000   3.252850
                                CHANNELS 3 Zrotation Xrotation Yrotation
                                JOINT RightFinger11
                                {
                                    OFFSET  -4.646930   0.000000   0.000000
                                    CHANNELS 3 Zrotation Xrotation Yrotation
                                    JOINT RightFinger12
                                    {
                                        OFFSET  -2.323470   0.000000   0.000000
                                        CHANNELS 3 Zrotation Xrotation Yrotation
                                        End Site
                                        {
                                            OFFSET  -2.273050   0.000000   0.000000
                                        }
                                    }
                                }
                            }
                            JOINT RightFinger2
                            {
                                OFFSET  -8.364480   0.000000   1.078090
                                CHANNELS 3 Zrotation Xrotation Yrotation
                                JOINT RightFinger21
                                {
                                    OFFSET  -5.111620   0.000000   0.000000
                                    CHANNELS 3 Zrotation Xrotation Yrotation
                                    JOINT RightFinger22
                                    {
                                        OFFSET  -2.788160   0.000000   0.000000
                                        CHANNELS 3 Zrotation Xrotation Yrotation
                                        End Site
                                        {
                                            OFFSET  -2.727660   0.000000   0.000000
                                        }
                                    }
                                }
                            }
                            JOINT RightFinger3
                            {
                                OFFSET  -7.899780   0.000000  -1.078090
                                CHANNELS 3 Zrotation Xrotation Yrotation
                                JOINT RightFinger31
                                {
                                    OFFSET  -4.646930   0.000000   0.000000
                                    CHANNELS 3 Zrotation Xrotation Yrotation
                                    JOINT RightFinger32
                                    {
                                        OFFSET  -2.323470   0.000000   0.000000
                                        CHANNELS 3 Zrotation Xrotation Yrotation
                                        End Site
                                        {
                                            OFFSET  -2.273050   0.000000   0.000000
                                        }
                                    }
                                }
                            }
                            JOINT RightFinger4
                            {
                                OFFSET  -7.435090   0.000000  -3.252850
                                CHANNELS 3 Zrotation Xrotation Yrotation
                                JOINT RightFinger41
                                {
                                    OFFSET  -3.717550   0.000000   0.000000
                                    CHANNELS 3 Zrotation Xrotation Yrotation
                                    JOINT RightFinger42
                                    {
                                        OFFSET  -1.858760   0.000000   0.000000
                                        CHANNELS 3 Zrotation Xrotation Yrotation
                                        End Site
                                        {
                                            OFFSET  -1.818440   0.000000   0.000000
                                        }
                                    }
                                }
                            }
                        }
                    }
                }
            }
        }
    }
    JOINT LeftHip
    {
        OFFSET   9.783030   0.000000   0.000000
        CHANNELS 3 Zrotation Xrotation Yrotation
        JOINT LeftKnee
        {
            OFFSET   0.000063 -41.789100   0.000608
            CHANNELS 3 Zrotation Xrotation Yrotation
            JOINT LeftAnkle
            {
                OFFSET   0.000048 -41.133200  -0.000184
                CHANNELS 3 Zrotation Xrotation Yrotation
                JOINT LeftToe
                {
                    OFFSET   0.000000  -6.358960  14.674500
                    CHANNELS 3 Zrotation Xrotation Yrotation
                    End Site
                    {
                        OFFSET   0.000000   0.000000   3.913200
                    }
                }
            }
        }
    }
    JOINT RightHip
    {
        OFFSET  -9.783030   0.000000   0.000000
        CHANNELS 3 Zrotation Xrotation Yrotation
        JOINT RightKnee
        {
            OFFSET   0.000071 -41.789100   0.001239
            CHANNELS 3 Zrotation Xrotation Yrotation
            JOINT RightAnkle
            {
                OFFSET   0.000037 -41.133200  -0.000166
                CHANNELS 3 Zrotation Xrotation Yrotation
                JOINT RightToe
                {
                    OFFSET   0.000000  -6.358960  14.674500
                    CHANNELS 3 Zrotation Xrotation Yrotation
                    End Site
                    {
                        OFFSET   0.000000   0.000000   3.913200
                    }
                }
            }
        }
    }
}
MOTION
Frames: 5
Frame Time:   0.016667
 -2.254230  89.430000  -0.244120  -5.661470 -17.321800  -8.720200   2.106600  10.003300   0.174877   4.282100  20.006100  -0.031321   5.843040  -0.223900   0.022828   9.599140  -0.440545   8.668440  -5.074970  -3.990160   1.051180 -70.165400  24.057600  -8.287670  -2.188160  -7.142560 -17.882200  16.956200  -9.535430   7.471470  36.900800  28.913800 -50.590000 -34.056900  -0.000236   0.000463 -12.028400   0.000471  -0.003052 -33.990000   6.513180  -9.549590 -28.255700   0.008570  -0.000969 -19.779000   0.000538  -0.009839 -28.641000  -2.477150   4.525030 -39.960900   0.000361  -0.001891 -26.614000   0.003651  -0.004429 -29.018000  -2.506920   4.508610 -43.675200   0.000392  -0.001902 -29.087700   0.007275  -0.010688 -33.167700  -2.826950   4.315320 -49.911500   0.000453  -0.000082 -33.241100   0.000859  -0.009600   6.822950  -6.380280   8.161810 -23.092200  14.020700  37.181600 -36.414200 -13.310300  71.872400  92.920000  -8.076920  58.750200 -44.187000  30.262000  56.153500  22.015700   0.012734  -0.005001   6.007880   0.010902  -0.003913  44.194200   0.348604   0.877343  36.154200  -0.121082   0.302634  25.649000  -0.000176   0.234237  31.478800  -3.388770  -5.497020  54.359400  -0.196538   0.781199  36.202900   0.133544   0.520405  32.165200  -4.917960  -7.682190  55.862100  -0.219815   0.880528  37.157300   0.144462   0.584560  48.646500  -7.151310  -5.757730  73.548800   0.195117   0.539238  48.983600   0.339457   0.175671   4.246770  21.699700   5.452730   1.805260   0.585635  10.469100  -2.974930  -4.441470   1.390020  -0.000000   0.000000   0.000000   4.205950  19.079800  -1.086970  -0.530988   2.336680  -5.151830  -0.536235  -4.620150   1.842110   0.000000   0.000000   0.000000
 -2.214770  89.440300  -0.244196  -5.725710 -17.362600  -8.850770   2.120400  10.055200   0.173973   4.311800  20.109400  -0.042637   5.773590  -0.217983   0.022050   9.483880  -0.428855   8.948480  -5.215400  -4.230130   0.956879 -70.263400  23.599500  -8.024360  -2.187250  -6.905250 -18.033400  16.957500  -9.805800   7.507480  37.000600  29.183400 -50.895000 -34.054000  -0.000328   0.000360 -12.027000   0.000454  -0.003044 -34.036700   6.529980  -9.559550 -28.298400   0.008577  -0.000962 -19.809000   0.000533  -0.009836 -28.643900  -2.466250   4.504780 -40.053600   0.000675  -0.001864 -26.675700   0.003612  -0.004443 -29.063100  -2.498190   4.487220 -43.743600   0.000356  -0.001880 -29.133300   0.007290  -0.010675 -33.241100  -2.818340   4.293510 -50.016400   0.000417  -0.000106 -33.311000   0.000825  -0.009631   6.716600  -6.323930   8.288210 -24.564500  13.925700  38.255900 -36.965800 -12.157500  71.919300  92.400000  -7.825530  52.625800 -42.999300  28.905600  54.918300  21.866600   0.014695  -0.005328   5.933320   0.010247  -0.003651  42.430100   0.491227   1.279650  34.772300  -0.245596   0.432208  24.510800  -0.046868   0.339856  31.044600  -3.786350  -6.171460  51.220800  -0.267255   0.923536  34.111700   0.121218   0.623903  30.977900  -5.241310  -8.732920  52.007000  -0.279733   0.987070  34.609200   0.131328   0.669320  46.844600  -7.545810  -6.830280  71.025200   0.232261   0.675512  47.302800   0.409432   0.241903   4.250190  21.781200   5.498920   1.792760   0.583617  10.510900  -2.955000  -4.485990   1.427440  -0.000000   0.000000   0.000000   4.216230  19.124300  -1.046870  -0.558704   2.362130  -5.106400  -0.508341  -4.634260   1.877720  -0.000000   0.000000  -0.000000
 -2.174770  89.456400  -0.244273  -5.845600 -17.426400  -9.088220   2.146080  10.115800   0.173873   4.365180  20.230900  -0.045498   5.693450  -0.194842   0.019470   9.353960  -0.383426   9.227050  -5.377020  -4.442250   0.777082 -70.237400  23.335900  -7.798800  -2.234430  -6.677120 -18.167400  16.911500  -9.957500   7.527910  37.113200  29.445200 -51.296800 -34.051300  -0.000426   0.000255 -12.025700   0.000438  -0.003040 -34.075600   6.570530  -9.600100 -28.332500   0.008586  -0.000954 -19.832800   0.000528  -0.009834 -28.649600  -2.433700   4.444640 -40.149700   0.000983  -0.001838 -26.739700   0.003575  -0.004455 -29.093100  -2.467880   4.425960 -43.783800   0.000321  -0.001860 -29.160000   0.007305  -0.010661 -33.301500  -2.786250   4.232920 -50.107800   0.000382  -0.000126 -33.371800   0.000794  -0.009665   6.662630  -6.257990   8.423010 -25.470200  13.688900  39.596400 -37.968400 -10.162400  71.083300  91.305000  -7.893950  45.895000 -42.928000  27.840000  53.360800  21.591500   0.019647  -0.007618   5.795770   0.009593  -0.002206  37.865500   0.577315   1.864850  30.984200  -0.328084   0.497694  21.646100  -0.116069   0.395172  30.405700  -4.183700  -6.693800  43.822000  -0.299870   0.944135  29.183900   0.084616   0.644367  29.337800  -5.565930  -9.486560  43.278500  -0.301485   1.002290  28.821900   0.094116   0.681428  42.800000  -7.796560  -7.902430  65.142700   0.239396   0.722405  43.385000   0.426727   0.273863   4.261990  21.943700   5.554260   1.771170   0.573794  10.590500  -2.928910  -4.530150   1.500410  -0.000000   0.000000  -0.000000   4.246420  19.175300  -1.008260  -0.588365   2.422150  -4.999060  -0.474260  -4.646050   1.936360   0.000000   0.000000   0.000000
 -2.136370  89.478600  -0.243384  -6.010360 -17.535600  -9.410530   2.167450  10.187300   0.214477   4.403430  20.375600   0.032407   5.621460  -0.142303   0.014054   9.232060  -0.280157   9.462350  -5.534400  -4.586010   0.578123 -70.082000  23.338900  -7.675010  -2.311500  -6.527840 -18.265600  16.755400  -9.881090   7.461010  37.162900  29.666300 -51.721800 -34.044400  -0.000524   0.000131 -12.022200   0.000414  -0.003038 -34.079000   6.633540  -9.681730 -28.338200   0.008597  -0.000944 -19.836700   0.000516  -0.009832 -28.658300  -2.371190   4.329470 -40.199000   0.001279  -0.001817 -26.772500   0.003539  -0.004463 -29.098400  -2.404690   4.311410 -43.778100   0.000286  -0.001838 -29.156200   0.007319  -0.010642 -33.321600  -2.716890   4.122050 -50.136200   0.000345  -0.000150 -33.390700   0.000762  -0.009703   6.688810  -6.174220   8.563320 -25.477900  13.090000  41.022800 -38.662300  -7.444520  69.213800  89.311400  -8.467260  38.412600 -44.160400  28.163100  50.729000  21.236600   0.029277  -0.011285   5.618320   0.013466   0.006410  31.110600   0.768254   3.158020  24.440100  -0.326188   0.346283  17.062800  -0.168528   0.283444  28.258500  -3.580400  -5.467680  32.362500  -0.213496   0.533171  21.553300  -0.000176   0.374872  27.033900  -4.625130  -7.762710  30.173200  -0.201473   0.551522  20.098300   0.010932   0.383286  37.913000  -5.981130  -6.225800  57.268000   0.019769   0.479885  38.140000   0.175730   0.223244   4.284220  22.164300   5.572550   1.749810   0.544521  10.742200  -2.894310  -4.577650   1.611950  -0.000000   0.000000   0.000000   4.284520  19.246300  -0.978661  -0.620724   2.511760  -4.841860  -0.433374  -4.656640   2.032350  -0.000000   0.000000   0.000000
 -2.098670  89.502200  -0.242495  -6.194780 -17.668800  -9.777880   2.179480  10.262300   0.302035   4.412040  20.528700   0.204639   5.571450  -0.086115   0.008414   9.153280  -0.169721   9.583290  -5.673100  -4.684880   0.368537 -69.892000  23.342200  -7.598140  -2.389640  -6.371440 -18.360100  16.551200  -9.630950   7.311780  37.289300  29.853400 -52.029000 -34.024600  -0.000626   0.000000 -12.012300   0.000391  -0.003037 -34.060800   6.703020  -9.794380 -28.339000   0.008609  -0.000935 -19.837300   0.000503  -0.009832 -28.664000  -2.303820   4.205910 -40.216300   0.001570  -0.001797 -26.784100   0.003504  -0.004470 -29.077700  -2.334250   4.189740 -43.738000   0.000252  -0.001817 -29.129600   0.007335  -0.010625 -33.334000  -2.639040   4.005140 -50.140300   0.000310  -0.000175 -33.393400   0.000731  -0.009741   6.758040  -6.086560   8.678360 -24.627300  12.002400  42.365600 -39.169200  -4.172970  66.791500  83.857900  -9.278020  30.019800 -44.805200  29.067200  48.081100  21.007700   0.075953  -0.029098   5.503850   0.040572   0.026429  21.740300   0.890140   4.712420  16.906900  -0.312878   0.123975  11.834900  -0.196453   0.116389  22.661200  -2.530310  -2.729960  20.282600  -0.092859   0.030499  13.508000  -0.060692   0.034162  21.585000  -3.112990  -4.182060  16.879000  -0.065900   0.023000  11.241200  -0.048177   0.025304  31.239700  -3.040230  -2.801020  46.675200  -0.199874   0.197686  31.085500  -0.075269   0.154760   4.288170  22.404300   5.583520   1.731170   0.522942  10.927500  -2.852040  -4.629700   1.749850  -0.000000   0.000000   0.000000   4.320310  19.327200  -0.950894  -0.658969   2.613250  -4.656520  -0.384975  -4.661860   2.143540  -0.000000   0.000000   0.000000
